<svg width="1920" height="1080" viewBox="0 0 1920 1080" fill="none" xmlns="http://www.w3.org/2000/svg">
<g clip-path="url(#clip0_52_18663)">
<rect width="1920" height="1080" fill="black"/>
<g filter="url(#filter0_f_52_18663)">
<path d="M214.284 -231.431C214.359 -33.5793 293.028 156.139 432.983 295.987C572.939 435.836 762.717 514.36 960.568 514.285C1158.42 514.209 1348.14 435.541 1487.99 295.585C1627.84 155.63 1706.36 -34.1483 1706.28 -232L1628.05 -231.97C1628.11 -54.8682 1557.83 115.007 1432.64 240.285C1307.46 365.562 1137.64 435.98 960.538 436.048C783.437 436.116 613.562 365.827 488.284 240.645C363.006 115.463 292.588 -54.3588 292.52 -231.461L214.284 -231.431Z" fill="url(#paint0_linear_52_18663)"/>
</g>
<g filter="url(#filter1_f_52_18663)">
<path d="M214.284 -231.431C214.359 -33.5793 293.028 156.139 432.983 295.987C572.939 435.836 762.717 514.36 960.568 514.285C1158.42 514.209 1348.14 435.541 1487.99 295.585C1627.84 155.63 1706.36 -34.1483 1706.28 -232L1628.05 -231.97C1628.11 -54.8682 1557.83 115.007 1432.64 240.285C1307.46 365.562 1137.64 435.98 960.538 436.048C783.437 436.116 613.562 365.827 488.284 240.645C363.006 115.463 292.588 -54.3588 292.52 -231.461L214.284 -231.431Z" fill="url(#paint1_linear_52_18663)"/>
</g>
<g filter="url(#filter2_f_52_18663)">
<path d="M214.284 -231.431C214.359 -33.5793 293.028 156.139 432.983 295.987C572.939 435.836 762.717 514.36 960.568 514.285C1158.42 514.209 1348.14 435.541 1487.99 295.585C1627.84 155.63 1706.36 -34.1483 1706.28 -232L1684.48 -231.992C1684.55 -39.9232 1608.32 144.308 1472.56 280.172C1336.8 416.037 1152.63 492.406 960.56 492.479C768.492 492.552 584.261 416.324 448.396 280.563C312.532 144.802 236.163 -39.3708 236.089 -231.439L214.284 -231.431Z" fill="url(#paint2_linear_52_18663)"/>
</g>
<g opacity="0.14" filter="url(#filter3_f_52_18663)">
<path d="M214.284 -231.431C214.359 -33.5793 293.028 156.139 432.983 295.987C572.939 435.836 762.717 514.36 960.568 514.285C1158.42 514.209 1348.14 435.541 1487.99 295.585C1627.84 155.63 1706.36 -34.1483 1706.28 -232L1684.48 -231.992C1684.55 -39.9232 1608.32 144.308 1472.56 280.172C1336.8 416.037 1152.63 492.406 960.56 492.479C768.492 492.552 584.261 416.324 448.396 280.563C312.532 144.802 236.163 -39.3708 236.089 -231.439L214.284 -231.431Z" fill="url(#paint3_linear_52_18663)"/>
</g>
<path d="M88.6 521.8C88.6 475.4 115 450 176.6 450C232.4 450 260.4 471.2 264 511.6H227.4C224 489 206.6 480.2 176.6 480.2C140 480.2 124.6 493.2 124.6 521.8C124.6 550.6 140.2 563.8 176.6 563.8C206.4 563.8 224 554.8 227.4 532H264C260.4 572.6 232.4 594 176.6 594C115 594 88.6 568.4 88.6 521.8ZM440.723 503.4C440.723 526.2 429.123 543 410.323 550.4L436.123 592H393.723L371.123 554.6H313.123V592H277.123V452H387.123C418.923 452 440.723 472.2 440.723 503.4ZM313.123 482.2V524.4H377.123C387.923 524.4 404.723 524.4 404.723 503.4C404.723 482.2 387.923 482.2 377.123 482.2H313.123ZM597.078 592L582.078 562.2H498.278L483.278 592H443.678L515.878 452H564.478L636.878 592H597.078ZM511.678 535.4H568.678L540.278 478.6L511.678 535.4ZM793.483 482.2H681.483V517.8H781.483V548.2H681.483V592H645.483V452H793.483V482.2ZM975.444 452V482.2H907.444V592H871.444V482.2H803.444V452H975.444ZM1135.28 480.6H1023.28V509H1135.28V535H1023.28V563.4H1135.28V592H987.28V452H1135.28V480.6ZM1250.01 452C1286.21 452 1318.01 474.4 1318.01 522C1318.01 569.6 1286.21 592 1250.01 592H1148.41V452H1250.01ZM1236.41 561.8C1263.61 561.8 1282.01 556 1282.01 522C1282.01 488 1263.61 482.2 1236.41 482.2H1184.41V561.8H1236.41ZM1484.83 516C1496.83 523.4 1504.63 535 1504.63 551.2C1504.63 574.8 1490.83 592 1459.03 592H1331.03V452H1454.23C1486.03 452 1495.83 468.2 1495.83 488.8C1495.83 498.6 1491.83 508.2 1484.83 516ZM1367.03 478V507H1441.23H1441.43C1451.03 507 1459.83 507 1459.83 492.4C1459.83 478 1451.03 478 1441.23 478H1367.03ZM1450.23 564.2C1459.83 564.2 1468.63 564.2 1468.63 549.4C1468.63 534.6 1459.83 534.6 1450.23 534.6H1367.03V564.2H1450.23ZM1575.61 546L1496.41 452H1539.81L1593.61 515.8L1647.41 452H1690.81L1611.61 546V592H1575.61V546ZM176.6 834C115 834 88.6 808.4 88.6 761.8C88.6 715.4 115 690 176.6 690C238 690 264.6 715.6 264.6 761.8C264.6 808.2 238 834 176.6 834ZM176.6 803.8C214 803.8 228.6 790.4 228.6 761.8C228.6 733.4 214.2 720.2 176.6 720.2C139 720.2 124.6 733.2 124.6 761.8C124.6 790.6 139.2 803.8 176.6 803.8ZM492.109 692V832H456.109V736L397.909 832H371.909L313.709 736V832H277.709V692H326.309L384.909 790.8L443.509 692H492.109ZM654.109 832L639.109 802.2H555.309L540.309 832H500.709L572.909 692H621.509L693.909 832H654.109ZM568.709 775.4H625.709L597.309 718.6L568.709 775.4ZM866.114 743.4C866.114 766.2 854.514 783 835.714 790.4L861.514 832H819.114L796.514 794.6H738.514V832H702.514V692H812.514C844.314 692 866.114 712.2 866.114 743.4ZM738.514 722.2V764.4H802.514C813.314 764.4 830.114 764.4 830.114 743.4C830.114 722.2 813.314 722.2 802.514 722.2H738.514Z" fill="url(#paint4_linear_52_18663)"/>
</g>
<defs>
<filter id="filter0_f_52_18663" x="-35.7158" y="-482" width="1992" height="1246.29" filterUnits="userSpaceOnUse" color-interpolation-filters="sRGB">
<feFlood flood-opacity="0" result="BackgroundImageFix"/>
<feBlend mode="normal" in="SourceGraphic" in2="BackgroundImageFix" result="shape"/>
<feGaussianBlur stdDeviation="125" result="effect1_foregroundBlur_52_18663"/>
</filter>
<filter id="filter1_f_52_18663" x="114.284" y="-332" width="1692" height="946.285" filterUnits="userSpaceOnUse" color-interpolation-filters="sRGB">
<feFlood flood-opacity="0" result="BackgroundImageFix"/>
<feBlend mode="normal" in="SourceGraphic" in2="BackgroundImageFix" result="shape"/>
<feGaussianBlur stdDeviation="50" result="effect1_foregroundBlur_52_18663"/>
</filter>
<filter id="filter2_f_52_18663" x="188.284" y="-258" width="1544" height="798.285" filterUnits="userSpaceOnUse" color-interpolation-filters="sRGB">
<feFlood flood-opacity="0" result="BackgroundImageFix"/>
<feBlend mode="normal" in="SourceGraphic" in2="BackgroundImageFix" result="shape"/>
<feGaussianBlur stdDeviation="13" result="effect1_foregroundBlur_52_18663"/>
</filter>
<filter id="filter3_f_52_18663" x="208.284" y="-238" width="1504" height="758.285" filterUnits="userSpaceOnUse" color-interpolation-filters="sRGB">
<feFlood flood-opacity="0" result="BackgroundImageFix"/>
<feBlend mode="normal" in="SourceGraphic" in2="BackgroundImageFix" result="shape"/>
<feGaussianBlur stdDeviation="3" result="effect1_foregroundBlur_52_18663"/>
</filter>
<linearGradient id="paint0_linear_52_18663" x1="1706.57" y1="514" x2="33.5632" y2="272.488" gradientUnits="userSpaceOnUse">
<stop stop-color="#6DDCFF"/>
<stop offset="1" stop-color="#7F60F9"/>
</linearGradient>
<linearGradient id="paint1_linear_52_18663" x1="1706.57" y1="514" x2="33.5632" y2="272.488" gradientUnits="userSpaceOnUse">
<stop stop-color="#6DDCFF"/>
<stop offset="1" stop-color="#7F60F9"/>
</linearGradient>
<linearGradient id="paint2_linear_52_18663" x1="1706.57" y1="514" x2="33.5632" y2="272.488" gradientUnits="userSpaceOnUse">
<stop stop-color="#6DDCFF"/>
<stop offset="1" stop-color="#7F60F9"/>
</linearGradient>
<linearGradient id="paint3_linear_52_18663" x1="1706.57" y1="514" x2="33.5632" y2="272.488" gradientUnits="userSpaceOnUse">
<stop stop-color="#6DDCFF"/>
<stop offset="1" stop-color="#7F60F9"/>
</linearGradient>
<linearGradient id="paint4_linear_52_18663" x1="82" y1="652" x2="1839" y2="652" gradientUnits="userSpaceOnUse">
<stop stop-color="white"/>
<stop offset="1" stop-color="#01E6FF"/>
</linearGradient>
<clipPath id="clip0_52_18663">
<rect width="1920" height="1080" fill="white"/>
</clipPath>
</defs>
</svg>
