<svg width="37" height="38" viewBox="0 0 37 38" fill="none" xmlns="http://www.w3.org/2000/svg">
<path d="M18.5015 0.583984C14.8423 0.583984 11.2652 1.66408 8.22264 3.68769C5.18011 5.71129 2.80868 8.58752 1.40835 11.9527C0.00801569 15.3178 -0.358374 19.0207 0.355509 22.5931C1.0694 26.1656 2.83151 29.447 5.41897 32.0223C8.00645 34.5979 11.3032 36.352 14.8921 37.0628C18.481 37.7733 22.201 37.4086 25.5818 36.0149C28.9626 34.6208 31.8518 32.2603 33.885 29.2318C35.918 26.2033 37.003 22.6427 37.003 19.0003C37.003 14.116 35.0538 9.43169 31.5841 5.97799C28.1143 2.52426 23.4085 0.583984 18.5015 0.583984ZM29.8666 21.6917C29.8666 22.06 28.1962 22.1126 28.1962 22.481C28.1962 22.8493 29.8483 23.3491 29.8483 23.857C29.8483 24.4778 26.4439 24.5698 26.4439 25.1908C26.4439 25.8538 29.0261 25.6485 29.0261 26.3668C29.0261 27.2139 22.5402 26.8193 22.5402 27.7006C22.5402 28.0373 23.3702 28.1768 24.4089 28.2874C24.9798 28.3504 24.8554 28.6293 24.5305 28.8136C22.7147 29.9163 20.6287 30.4999 18.5015 30.4999C16.3744 30.4999 14.2884 29.9163 12.4726 28.8136C12.1502 28.6163 12.0233 28.3374 12.5942 28.2874C13.633 28.1768 14.4656 28.0243 14.4656 27.7006C14.4656 26.8193 7.97679 27.2139 7.97679 26.3668C7.97679 25.6485 10.5617 25.8406 10.5617 25.1908C10.5617 24.5698 7.15484 24.4778 7.15484 23.857C7.15484 23.3491 8.80942 22.8572 8.80942 22.481C8.80942 22.1047 7.13633 22.0626 7.13633 21.6917C7.13633 21.3207 8.35745 21.0813 8.35745 20.8182C8.35745 20.321 6.93808 21.226 6.93808 19.0003C6.93808 15.9476 8.15642 13.0199 10.325 10.8614C12.4936 8.70277 15.4347 7.49008 18.5015 7.49008C21.5683 7.49008 24.5096 8.70277 26.6782 10.8614C28.8467 13.0199 30.0649 15.9476 30.0649 19.0003C30.0649 21.226 28.6457 20.3157 28.6457 20.8182C28.6457 21.0813 29.8666 21.2944 29.8666 21.6917Z" fill="url(#paint0_linear_63_1331)"/>
<defs>
<linearGradient id="paint0_linear_63_1331" x1="0" y1="0.583984" x2="41.482" y2="6.61618" gradientUnits="userSpaceOnUse">
<stop stop-color="#6DDCFF"/>
<stop offset="1" stop-color="#7F60F9"/>
</linearGradient>
</defs>
</svg>
