<svg width="353" height="252" viewBox="0 0 353 252" fill="none" xmlns="http://www.w3.org/2000/svg">
<g filter="url(#filter0_f_63_1397)">
<path d="M-214 -86L-72 -183L141 -228L160.5 -137.5C190.5 -94.5 251.8 -5.3 257 7.5C262.2 20.3 168.833 62.5 121.5 82L141 156L-140 82L-214 -86Z" fill="url(#paint0_linear_63_1397)"/>
<path d="M-214 -86L-72 -183L141 -228L160.5 -137.5C190.5 -94.5 251.8 -5.3 257 7.5C262.2 20.3 168.833 62.5 121.5 82L141 156L-140 82L-214 -86Z" stroke="white"/>
</g>
<defs>
<filter id="filter0_f_63_1397" x="-309.625" y="-323.592" width="662.334" height="575.294" filterUnits="userSpaceOnUse" color-interpolation-filters="sRGB">
<feFlood flood-opacity="0" result="BackgroundImageFix"/>
<feBlend mode="normal" in="SourceGraphic" in2="BackgroundImageFix" result="shape"/>
<feGaussianBlur stdDeviation="47.5" result="effect1_foregroundBlur_63_1397"/>
</filter>
<linearGradient id="paint0_linear_63_1397" x1="-214" y1="-36" x2="257.208" y2="-36" gradientUnits="userSpaceOnUse">
<stop stop-color="white"/>
<stop offset="1" stop-color="#01E6FF"/>
</linearGradient>
</defs>
</svg>
