<svg width="22" height="34" viewBox="0 0 22 34" fill="none" xmlns="http://www.w3.org/2000/svg">
<g clip-path="url(#clip0_939_31)">
<path d="M5.44898 33.5092C8.45574 33.5092 10.896 31.0438 10.896 28.0061V22.5029H5.44898C2.44222 22.5029 0.00195312 24.9683 0.00195312 28.0061C0.00195312 31.0438 2.44222 33.5092 5.44898 33.5092Z" fill="#00DA87"/>
<path d="M0.00195312 17C0.00195312 13.9622 2.44222 11.4968 5.44898 11.4968H10.896V22.5031H5.44898C2.44222 22.5031 0.00195312 20.0377 0.00195312 17Z" fill="#B81AFF"/>
<path d="M0.00390625 5.99362C0.00390625 2.95589 2.44417 0.490479 5.45093 0.490479H10.898V11.4968H5.45093C2.44417 11.4968 0.00390625 9.03136 0.00390625 5.99362Z" fill="#FF2E00"/>
<path d="M10.8965 0.490479H16.3435C19.3503 0.490479 21.7905 2.95589 21.7905 5.99362C21.7905 9.03136 19.3503 11.4968 16.3435 11.4968H10.8965V0.490479Z" fill="#FF6053"/>
<path d="M21.7905 17C21.7905 20.0377 19.3503 22.5031 16.3435 22.5031C13.3368 22.5031 10.8965 20.0377 10.8965 17C10.8965 13.9622 13.3368 11.4968 16.3435 11.4968C19.3503 11.4968 21.7905 13.9622 21.7905 17Z" fill="#00BBFF"/>
</g>
<defs>
<clipPath id="clip0_939_31">
<rect width="21.7925" height="33.0189" fill="white" transform="translate(0 0.490479)"/>
</clipPath>
</defs>
</svg>
