<svg width="40" height="40" viewBox="0 0 40 40" fill="none" xmlns="http://www.w3.org/2000/svg">
<path d="M20 0.5C16.0444 0.5 12.1776 1.64365 8.88861 3.78634C5.59966 5.92902 3.03616 8.97449 1.52242 12.5377C0.0086649 16.1008 -0.3874 20.0216 0.384302 23.8042C1.15601 27.5869 3.06084 31.0614 5.85786 33.7883C8.65491 36.5155 12.2186 38.3728 16.0982 39.1254C19.9779 39.8777 23.9992 39.4915 27.6538 38.0158C31.3083 36.5397 34.4316 34.0403 36.6294 30.8336C38.827 27.6268 40 23.8567 40 20C40 14.8282 37.8929 9.86834 34.1421 6.21141C30.3913 2.55445 25.3044 0.5 20 0.5ZM32.2856 22.8497C32.2856 23.2397 30.4799 23.2955 30.4799 23.6855C30.4799 24.0754 32.2657 24.6047 32.2657 25.1425C32.2657 25.7998 28.5856 25.8972 28.5856 26.5548C28.5856 27.2568 31.377 27.0394 31.377 27.8C31.377 28.697 24.3657 28.2791 24.3657 29.2123C24.3657 29.5688 25.2629 29.7165 26.3858 29.8336C27.0029 29.9003 26.8685 30.1956 26.5173 30.3908C24.5544 31.5583 22.2994 32.1762 20 32.1762C17.7006 32.1762 15.4457 31.5583 13.4828 30.3908C13.1343 30.1818 12.9971 29.8865 13.6143 29.8336C14.7371 29.7165 15.6371 29.555 15.6371 29.2123C15.6371 28.2791 8.62284 28.697 8.62284 27.8C8.62284 27.0394 11.4172 27.2428 11.4172 26.5548C11.4172 25.8972 7.73433 25.7998 7.73433 25.1425C7.73433 24.6047 9.52292 24.0838 9.52292 23.6855C9.52292 23.2871 7.71431 23.2425 7.71431 22.8497C7.71431 22.457 9.03433 22.2035 9.03433 21.9249C9.03433 21.3984 7.50001 22.3567 7.50001 20C7.50001 16.7676 8.81703 13.6677 11.1612 11.3821C13.5054 9.09652 16.6848 7.81248 20 7.81248C23.3152 7.81248 26.4947 9.09652 28.8389 11.3821C31.1831 13.6677 32.4999 16.7676 32.4999 20C32.4999 22.3567 30.9658 21.3928 30.9658 21.9249C30.9658 22.2035 32.2856 22.4291 32.2856 22.8497Z" fill="url(#paint0_linear_42_16348)"/>
<defs>
<linearGradient id="paint0_linear_42_16348" x1="0" y1="0.5" x2="44.8025" y2="7.15134" gradientUnits="userSpaceOnUse">
<stop stop-color="#6DDCFF"/>
<stop offset="1" stop-color="#7F60F9"/>
</linearGradient>
</defs>
</svg>
