<svg width="189" height="44" viewBox="0 0 189 44" fill="none" xmlns="http://www.w3.org/2000/svg">
<path d="M18.5015 3.58398C14.8423 3.58398 11.2652 4.66408 8.22264 6.68769C5.18011 8.71129 2.80868 11.5875 1.40835 14.9527C0.00801569 18.3178 -0.358374 22.0207 0.355509 25.5931C1.0694 29.1656 2.83151 32.447 5.41897 35.0223C8.00645 37.5979 11.3032 39.352 14.8921 40.0628C18.481 40.7733 22.201 40.4086 25.5818 39.0149C28.9626 37.6208 31.8518 35.2603 33.885 32.2318C35.918 29.2033 37.003 25.6427 37.003 22.0003C37.003 17.116 35.0538 12.4317 31.5841 8.97799C28.1143 5.52426 23.4085 3.58398 18.5015 3.58398ZM29.8666 24.6917C29.8666 25.06 28.1962 25.1126 28.1962 25.481C28.1962 25.8493 29.8483 26.3491 29.8483 26.857C29.8483 27.4778 26.4439 27.5698 26.4439 28.1908C26.4439 28.8538 29.0261 28.6485 29.0261 29.3668C29.0261 30.2139 22.5402 29.8193 22.5402 30.7006C22.5402 31.0373 23.3702 31.1768 24.4089 31.2874C24.9798 31.3504 24.8554 31.6293 24.5305 31.8136C22.7147 32.9163 20.6287 33.4999 18.5015 33.4999C16.3744 33.4999 14.2884 32.9163 12.4726 31.8136C12.1502 31.6163 12.0233 31.3374 12.5942 31.2874C13.633 31.1768 14.4656 31.0243 14.4656 30.7006C14.4656 29.8193 7.97679 30.2139 7.97679 29.3668C7.97679 28.6485 10.5617 28.8406 10.5617 28.1908C10.5617 27.5698 7.15484 27.4778 7.15484 26.857C7.15484 26.3491 8.80942 25.8572 8.80942 25.481C8.80942 25.1047 7.13633 25.0626 7.13633 24.6917C7.13633 24.3207 8.35745 24.0813 8.35745 23.8182C8.35745 23.321 6.93808 24.226 6.93808 22.0003C6.93808 18.9476 8.15642 16.0199 10.325 13.8614C12.4936 11.7028 15.4347 10.4901 18.5015 10.4901C21.5683 10.4901 24.5096 11.7028 26.6782 13.8614C28.8467 16.0199 30.0649 18.9476 30.0649 22.0003C30.0649 24.226 28.6457 23.3157 28.6457 23.8182C28.6457 24.0813 29.8666 24.2944 29.8666 24.6917Z" fill="url(#paint0_linear_42_16347)"/>
<path d="M50.8197 28.256C47.7797 28.256 45.9877 26.512 45.9877 23.552V21.28C45.9877 18.336 47.7797 16.592 50.8197 16.592C53.8437 16.592 55.6357 18.336 55.6357 21.28H53.5077C53.5077 19.472 52.4997 18.416 50.8197 18.416C49.1237 18.416 48.1157 19.472 48.1157 21.28V23.552C48.1157 25.36 49.1237 26.432 50.8197 26.432C52.4997 26.432 53.5077 25.36 53.5077 23.552H55.6357C55.6357 26.512 53.8437 28.256 50.8197 28.256ZM56.9095 28V16.8H62.6695C64.9415 16.8 66.2855 18.32 66.2855 20.912C66.2855 22.784 65.5015 24.288 63.9015 24.752L66.2855 28H64.0935L61.9335 25.008H59.0375V28H56.9095ZM59.0375 23.44H61.9975C63.3575 23.44 64.1575 22.496 64.1575 20.912C64.1575 19.312 63.3575 18.368 61.9975 18.368H59.0375V23.44ZM67.5658 21.456C67.5658 18.4 69.3898 16.592 72.4458 16.592C75.4858 16.592 77.2778 18.4 77.2778 21.456V28H75.1498V25.248H69.6938V28H67.5658V21.456ZM69.6938 23.6H75.1498V21.456C75.1498 19.632 74.1578 18.528 72.4458 18.528C70.7178 18.528 69.6938 19.632 69.6938 21.456V23.6ZM78.5502 16.8H87.1262V18.368H80.6462V21.616H86.6462V23.184H80.6462V28H78.5502V16.8ZM98.0735 16.8V18.448H94.3135V28H92.1855V18.448H88.4095V16.8H98.0735ZM99.347 16.8H107.875V18.368H101.475V21.616H107.475V23.184H101.475V26.432H107.955V28H99.347V16.8ZM109.238 28V16.8H113.814C117.158 16.8 118.758 18.544 118.774 22.512C118.774 26.272 117.238 28 113.814 28H109.238ZM111.366 26.432H113.606C115.814 26.432 116.646 25.328 116.646 22.512C116.646 19.568 115.846 18.352 113.606 18.352H111.366V26.432ZM120.05 16.8H125.842C128.098 16.8 129.426 17.888 129.426 19.728C129.426 21.04 128.834 22.112 127.586 22.384C129.01 22.624 129.666 23.648 129.666 24.992C129.666 26.88 128.306 28 125.986 28H120.05V16.8ZM122.178 26.432H125.986C127.202 26.432 127.906 25.824 127.906 24.8C127.906 23.776 127.202 23.184 125.986 23.184H122.178V26.432ZM122.178 21.616H125.826C126.978 21.616 127.666 21.008 127.666 20C127.666 18.96 126.978 18.352 125.826 18.352H122.178V21.616ZM134.11 28V23.648L130.222 16.8H132.398L135.182 21.952L137.95 16.8H140.126L136.238 23.648V28H134.11ZM145.601 28.256C142.561 28.256 140.769 26.512 140.769 23.552V21.28C140.769 18.336 142.561 16.592 145.601 16.592C148.625 16.592 150.417 18.336 150.417 21.28V23.552C150.417 26.512 148.625 28.256 145.601 28.256ZM142.897 23.552C142.897 25.36 143.905 26.432 145.601 26.432C147.281 26.432 148.289 25.36 148.289 23.552V21.28C148.289 19.472 147.281 18.416 145.601 18.416C143.905 18.416 142.897 19.472 142.897 21.28V23.552ZM151.691 21.44C151.691 18.368 153.259 16.544 155.915 16.544C157.467 16.544 158.651 17.344 159.051 18.656C159.435 17.344 160.635 16.544 162.203 16.544C164.811 16.544 166.379 18.368 166.379 21.44V28H164.267V21.136C164.267 19.488 163.483 18.512 162.203 18.512C160.891 18.512 160.091 19.488 160.091 21.136V28H157.979V21.136C157.979 19.488 157.195 18.512 155.915 18.512C154.635 18.512 153.835 19.488 153.835 21.136L153.819 28H151.691V21.44ZM167.66 21.456C167.66 18.4 169.484 16.592 172.54 16.592C175.58 16.592 177.372 18.4 177.372 21.456V28H175.244V25.248H169.788V28H167.66V21.456ZM169.788 23.6H175.244V21.456C175.244 19.632 174.252 18.528 172.54 18.528C170.812 18.528 169.788 19.632 169.788 21.456V23.6ZM178.644 28V16.8H184.404C186.676 16.8 188.02 18.32 188.02 20.912C188.02 22.784 187.236 24.288 185.636 24.752L188.02 28H185.828L183.668 25.008H180.772V28H178.644ZM180.772 23.44H183.732C185.092 23.44 185.892 22.496 185.892 20.912C185.892 19.312 185.092 18.368 183.732 18.368H180.772V23.44Z" fill="white"/>
<defs>
<linearGradient id="paint0_linear_42_16347" x1="0" y1="3.58398" x2="41.482" y2="9.61618" gradientUnits="userSpaceOnUse">
<stop stop-color="#6DDCFF"/>
<stop offset="1" stop-color="#7F60F9"/>
</linearGradient>
</defs>
</svg>
