<svg width="46" height="46" viewBox="0 0 46 46" fill="none" xmlns="http://www.w3.org/2000/svg">
<g clip-path="url(#clip0_63_1355)">
<path d="M30.6667 34.4993C31.6833 34.4993 32.6584 34.9032 33.3772 35.6221C34.0961 36.341 34.5 37.316 34.5 38.3327C34.5 37.316 34.9039 36.341 35.6228 35.6221C36.3416 34.9032 37.3167 34.4993 38.3333 34.4993C37.3167 34.4993 36.3416 34.0955 35.6228 33.3766C34.9039 32.6577 34.5 31.6827 34.5 30.666C34.5 31.6827 34.0961 32.6577 33.3772 33.3766C32.6584 34.0955 31.6833 34.4993 30.6667 34.4993ZM30.6667 11.4993C31.6833 11.4993 32.6584 11.9032 33.3772 12.6221C34.0961 13.341 34.5 14.316 34.5 15.3327C34.5 14.316 34.9039 13.341 35.6228 12.6221C36.3416 11.9032 37.3167 11.4993 38.3333 11.4993C37.3167 11.4993 36.3416 11.0955 35.6228 10.3766C34.9039 9.6577 34.5 8.68268 34.5 7.66602C34.5 8.68268 34.0961 9.6577 33.3772 10.3766C32.6584 11.0955 31.6833 11.4993 30.6667 11.4993ZM17.25 34.4993C17.25 31.4494 18.4616 28.5243 20.6183 26.3676C22.7749 24.211 25.7 22.9993 28.75 22.9993C25.7 22.9993 22.7749 21.7877 20.6183 19.6311C18.4616 17.4744 17.25 14.5493 17.25 11.4993C17.25 14.5493 16.0384 17.4744 13.8817 19.6311C11.7251 21.7877 8.79999 22.9993 5.75 22.9993C8.79999 22.9993 11.7251 24.211 13.8817 26.3676C16.0384 28.5243 17.25 31.4494 17.25 34.4993Z" stroke="white" stroke-width="1.5" stroke-linecap="round" stroke-linejoin="round"/>
</g>
<defs>
<clipPath id="clip0_63_1355">
<rect width="46" height="46" fill="white"/>
</clipPath>
</defs>
</svg>
